PathFileType	4	(X/Y/Z)	C:/Users/beibeiliu/ov580/test_trc/User3\sequence.37_training_dense_left.trc
DataRate	CameraRate	NumFrames	NumMarkers	Units	OrigDataRate	OrigDataStartFrame	OrigNumFrames
120	120	13	19	mm	120	103	274
Frame#	Time	ThumbCMC			ThumbMCP			ThumbIP			ThumbTip			IndexMCP			IndexPIP			IndexTip			MiddleMCP			MiddlePIP			MiddleTip			RingMCP			RingPIP			RingTip			PinkyMCP			PinkyPIP			PinkyTip			BackHand1			BackHand2			BackHand3	
		X0	Y0	Z0	X1	Y1	Z1	X2	Y2	Z2	X3	Y3	Z3	X4	Y4	Z4	X5	Y5	Z5	X6	Y6	Z6	X7	Y7	Z7	X8	Y8	Z8	X9	Y9	Z9	X10	Y10	Z10	X11	Y11	Z11	X12	Y12	Z12	X13	Y13	Z13	X14	Y14	Z14	X15	Y15	Z15	X16	Y16	Z16	X17	Y17	Z17	X18	Y18	Z18	
102	0.85	-162.668	45.7471	-0.807892	-131.215	38.0288	-15.4296	-111.94	21.813	-28.508	-106.285	-4.09067	-36.0327	-148.983	16.1195	-71.2999	-119.575	5.74925	-73.8496	-104.848	4.77483	-45.6836	-152.161	-7.8779	-69.1398	-119.037	-11.6198	-64.7484	-118.127	-5.29901	-25.7094	-157.228	-23.2593	-55.689	-126.81	-27.7499	-47.2173	-127.544	-16.8101	-15.913	-165.267	-32.8936	-40.6473	-136.324	-35.6361	-37.8614	-131.415	-27.6009	-8.31709	-201.582	-3.43242	-25.1174	-211.914	6.62617	0.30022	-197.107	31.1803	-18.6715	
103	0.858333	-162.992	40.733	-0.408764	-134.51	36.0821	-17.0487	-112.922	21.6396	-35.1155	-110.467	-5.50827	-45.6839	-158.021	15.5123	-72.5963	-127.663	3.23518	-79.577	-110.52	5.44596	-50.7	-159.839	-5.22202	-72.9375	-127.276	-15.2734	-69.834	-121.959	-6.87433	-35.342	-163.635	-19.0448	-62.0473	-134.715	-28.4043	-57.066	-132.207	-17.3075	-23.7439	-171.041	-32.8062	-47.5218	-142.767	-36.5657	-45.8008	-133.106	-28.4801	-16.7115	-203.401	-1.49166	-25.1405	-212.831	6.41259	1.48631	-197.251	31.5262	-16.3995	
104	0.866667	-161.345	39.6218	3.27531	-133.409	32.0818	-18.2763	-113.002	17.9087	-37.1968	-113.834	-10.0399	-49.9136	-158.516	17.7435	-72.9314	-129.33	1.87336	-79.6232	-114.902	1.08871	-48.8937	-162.229	-5.66689	-72.8675	-130.763	-16.1374	-72.8361	-127.357	-8.29555	-32.1045	-165.432	-21.3612	-65.1695	-139.176	-30.5361	-61.2188	-133.613	-20.0508	-27.3347	-176.321	-31.7241	-46.2758	-148.042	-39.2698	-49.4418	-135.843	-36.0555	-21.1323	-206.618	-0.849953	-25.0237	-216.894	5.447	6.87641	-193.868	34.772	-11.8314	
105	0.875	-158.766	37.0218	2.30894	-130.215	30.8539	-14.1702	-115.3	13.7619	-35.6242	-111.942	-7.04639	-44.4061	-154.365	20.1642	-70.6686	-130.112	2.3759	-79.5482	-113.633	2.02526	-46.2734	-158.739	-0.335808	-72.2686	-129.808	-15.8094	-72.4428	-124.995	-10.8024	-31.6544	-168.049	-17.8243	-60.5701	-136.25	-30.7831	-57.9222	-133.886	-22.4394	-23.4785	-175.378	-35.048	-47.2136	-148.669	-43.1179	-48.3774	-136.377	-35.1499	-23.2088	-202.969	4.28801	-22.8634	-213.422	9.12118	7.20035	-191.784	30.5692	-13.2811	
106	0.883333	-153.824	38.9423	7.65432	-124.602	31.0173	-7.93712	-109.83	11.8116	-30.6167	-112.438	-15.0172	-41.6395	-148.074	16.1524	-69.1278	-121.205	0.792575	-72.9735	-113.044	-0.638669	-40.4088	-153.292	-5.69604	-70.7237	-125.953	-18.9624	-65.9272	-126.098	-16.6627	-24.9679	-163.748	-19.5761	-57.8978	-137.343	-35.9684	-53.3979	-133.572	-29.4291	-20.8652	-169.311	-34.5632	-46.6883	-146.134	-47.6687	-41.545	-137.304	-38.6468	-10.6342	-200.841	-0.138271	-22.5957	-212.064	7.47007	9.31668	-188.031	34.1708	-8.43143	
107	0.891667	-153.297	34.1451	12.8514	-122.551	25.025	-6.30367	-106.749	8.28203	-21.4735	-106.876	-18.021	-33.459	-141.59	14.7691	-61.6641	-114.03	-4.33286	-63.897	-111.482	-5.16229	-30.006	-146.377	-10.2005	-64.9542	-118.438	-23.6886	-56.2201	-121.71	-20.6788	-20.5108	-156.865	-25.9996	-53.5275	-133.227	-42.3516	-45.5992	-130.022	-29.5495	-12.6704	-166.126	-38.67	-41.5332	-142.382	-48.0245	-34.2115	-136.242	-38.5435	-5.67112	-198.878	-2.58068	-21.0096	-210.065	6.0094	9.3475	-186.468	32.1387	-8.95901	
108	0.9	-150.545	33.5364	16.1243	-120.917	21.6416	1.93101	-100.33	4.58816	-12.637	-100.735	-20.4273	-20.3367	-131.94	9.62847	-55.8665	-104.426	-9.01422	-53.0028	-105.558	-3.8563	-17.4284	-136.567	-12.541	-59.1043	-110.891	-28.4736	-44.7212	-118.847	-19.3734	-8.62652	-146.817	-31.9027	-47.7398	-126.187	-45.3974	-34.3517	-129.055	-30.8303	-2.36324	-159.263	-43.2183	-34.1391	-135.514	-52.2197	-20.6898	-132.302	-39.6513	3.23853	-192.843	-1.5721	-20.1828	-207.143	6.48919	6.09385	-180.362	27.7822	-7.88222	
109	0.908333	-146.554	30.6877	18.1441	-112.868	22.4153	11.2873	-95.9241	0.936691	-0.582798	-96.6357	-26.0496	-10.0666	-122.035	1.79655	-47.8647	-96.3448	-12.2733	-42.9172	-97.4139	-8.74417	-9.87587	-130.653	-15.8016	-48.0889	-102.358	-32.3027	-34.1836	-115.059	-24.8611	-0.330805	-138.896	-33.9388	-38.4202	-117.69	-45.9629	-18.5395	-125.637	-34.4142	8.38071	-151.197	-48.2137	-26.6308	-128.42	-50.8986	-10.8801	-132.03	-40.135	16.8117	-188.141	-4.88096	-15.1614	-204.709	6.369	7.95593	-177.015	28.6672	-4.10809	
110	0.916667	-143.699	33.4124	26.3181	-107.362	19.9936	18.6469	-90.1662	-1.66268	9.40796	-93.9768	-26.2846	3.01945	-113.14	0.0482592	-39.1721	-87.8741	-17.7699	-28.3985	-90.3123	-11.493	1.53486	-117.502	-20.5842	-39.6336	-95.2867	-36.0517	-20.8244	-112.419	-20.7864	13.8119	-129.308	-35.3109	-29.0184	-110.118	-47.7464	-8.44555	-121.679	-33.6715	20.3067	-142.87	-47.4823	-17.5251	-123.184	-52.8703	0.050713	-128.102	-38.4498	23.5458	-181.058	-8.08385	-12.7763	-200.139	3.10569	9.08786	-170.618	27.8965	-2.6252	
111	0.925	-141.199	34.308	27.7	-109.252	24.3332	29.5166	-86.4548	3.76217	22.8038	-82.8196	-23.1564	18.5177	-103.493	-0.922092	-30.4549	-78.1543	-16.9812	-19.3198	-85.8504	-9.28526	14.0361	-106.606	-21.4021	-30.3419	-86.8846	-35.3682	-9.55023	-106.107	-20.3495	23.6077	-120.451	-38.6858	-17.3986	-102.489	-48.3263	4.67863	-114.741	-31.4035	30.7811	-137.644	-50.0416	-7.19125	-115.907	-55.2692	11.9412	-123.915	-35.8615	39.498	-168.661	-9.85025	-12.7559	-192.725	3.27791	8.77366	-166.925	23.6143	-0.404535	
112	0.933333	-140.06	39.8677	30.4246	-105.031	28.1594	34.0402	-83.2298	8.59862	32.6197	-77.1514	-19.276	32.0541	-95.4213	0.690258	-22.0355	-66.9901	-10.2896	-6.07762	-78.3146	-2.55446	25.9294	-102.098	-23.9689	-18.8633	-75.1392	-29.2643	1.10967	-93.9563	-15.0684	32.9846	-108.938	-38.0313	-6.98414	-92.2969	-43.7388	16.2345	-105.144	-25.3348	40.6539	-122.992	-48.7809	4.17237	-106.781	-49.1926	21.9088	-116.539	-30.0707	46.2269	-164.786	-12.804	-5.72187	-185.721	-0.315259	8.49836	-160.639	22.4686	-2.39923	
113	0.941667	-137.45	42.658	27.7525	-106.81	36.9845	36.2097	-79.9553	18.3831	39.1844	-72.0903	-9.6533	40.5959	-90.0224	3.25157	-15.2093	-61.1678	-5.25688	3.103	-70.8298	6.74149	32.884	-88.9231	-22.7431	-10.8443	-66.6301	-21.6922	9.8555	-92.7311	-6.48324	41.4085	-98.5283	-33.5328	0.0927566	-82.358	-34.7166	23.5645	-100.633	-16.6347	49.3013	-116.834	-45.2314	12.2098	-97.41	-43.6325	35.1073	-111.072	-23.7054	55.2687	-154.033	-11.9272	-5.09876	-183.297	-5.35247	9.58087	-158.082	23.0464	-0.89593	
114	0.95	-145.316	44.8054	25.2299	-106.65	42.3526	30.5225	-79.7903	28.1363	33.5804	-71.7339	6.17737	38.702	-88.0756	10.5186	-18.5016	-58.8669	7.19815	-0.793798	-65.2608	14.9601	28.0177	-86.2883	-8.79608	-13.4179	-63.0641	-10.2036	12.5835	-81.9191	5.60056	37.8895	-92.2963	-28.285	-0.264748	-75.3477	-25.4002	20.9952	-91.2342	-7.98362	45.6219	-110.951	-36.5226	11.413	-88.5686	-33.1748	29.5922	-103.162	-17.5181	52.3539	-153.645	-12.7957	-1.1441	-176.848	-9.06365	9.09042	-159.636	20.0235	-3.70378	
